<?xml version="1.0" standalone="no"?>
<!DOCTYPE svg PUBLIC "-//W3C//DTD SVG 20010904//EN"
 "http://www.w3.org/TR/2001/REC-SVG-20010904/DTD/svg10.dtd">
<svg version="1.0" xmlns="http://www.w3.org/2000/svg"
 width="1909.000000pt" height="1909.000000pt" viewBox="0 0 1909.000000 1909.000000"
 preserveAspectRatio="xMidYMid meet">
<metadata>
Created by potrace 1.11, written by Peter Selinger 2001-2013
</metadata>
<g transform="translate(0.000000,1909.000000) scale(0.100000,-0.100000)"
fill="#000000" stroke="none">
<path d="M9515 16814 c-953 -21 -1746 -84 -2585 -204 -360 -52 -841 -137
-1051 -186 l-107 -25 55 -87 c165 -261 278 -558 334 -877 27 -153 37 -456 20
-616 -118 -1125 -985 -1992 -2110 -2110 -160 -17 -463 -7 -616 20 -245 43
-462 114 -671 219 l-101 51 -169 -15 c-699 -60 -1233 -199 -1501 -390 -188
-134 -285 -378 -263 -659 12 -138 15 -147 86 -255 148 -224 418 -520 654 -717
337 -283 903 -681 1510 -1065 357 -225 481 -300 488 -294 3 3 3 8 1 9 -2 2
-96 73 -209 158 -195 146 -440 338 -560 438 -232 194 -464 400 -648 576 -101
96 -308 325 -396 439 -111 144 -182 260 -229 374 -34 85 -38 105 -35 159 3 50
10 71 34 105 107 153 405 246 890 279 170 12 517 8 547 -5 9 -5 17 -17 17 -27
0 -80 197 -926 283 -1214 20 -66 50 -169 67 -228 46 -160 199 -617 273 -817
36 -96 78 -211 95 -255 l29 -80 104 -76 c181 -132 704 -499 974 -684 1170
-800 2360 -1528 3400 -2077 1264 -669 3024 -1371 4718 -1883 l218 -66 26 21
c68 54 466 436 703 676 620 628 1189 1300 1569 1853 229 333 577 899 568 924
-1 4 -155 66 -342 136 -354 133 -595 229 -825 326 -216 92 -609 261 -686 296
l-71 32 52 76 c177 257 244 507 217 806 -7 74 -20 173 -29 220 l-17 86 -50 -6
c-283 -36 -523 -96 -828 -206 l-137 -50 -43 47 c-52 56 -197 174 -215 174 -7
0 -35 -12 -62 -27 l-48 -27 -69 63 c-38 35 -109 90 -159 123 -85 57 -286 162
-384 202 -25 10 -40 21 -35 26 29 28 488 148 707 185 289 49 621 53 768 9 175
-52 344 -181 584 -444 54 -59 188 -157 465 -341 367 -242 618 -388 1009 -586
145 -73 291 -149 325 -167 33 -19 160 -86 282 -149 772 -400 1380 -637 1725
-672 212 -22 304 112 264 386 -20 139 -71 315 -142 494 -257 648 -548 1162
-867 1530 -38 44 -122 132 -188 196 l-118 116 44 199 c85 376 153 745 240
1304 46 295 117 877 151 1245 41 445 104 1412 92 1420 -20 15 -227 145 -231
145 -2 0 -41 22 -85 50 -104 65 -415 225 -572 296 -794 357 -1628 610 -2509
760 -926 159 -1708 244 -2735 299 -545 28 -1478 48 -1890 39z m-2531 -3094
c155 -24 257 -48 391 -90 125 -40 193 -74 300 -150 93 -67 258 -218 250 -230
-5 -8 -66 -15 -220 -25 -44 -3 -96 -8 -115 -10 -19 -2 -73 -7 -120 -10 -47 -3
-120 -11 -163 -16 -42 -6 -81 -7 -86 -4 -5 3 -12 19 -16 35 -4 16 -11 32 -16
35 -5 3 -44 -5 -87 -19 -81 -25 -339 -73 -348 -63 -3 2 3 56 13 118 12 77 18
169 18 282 l0 167 35 0 c19 0 93 -9 164 -20z m2868 -395 c395 -35 848 -127
1057 -216 143 -61 369 -177 536 -274 222 -130 838 -531 856 -558 10 -14 -1
-44 -21 -62 -18 -16 -25 -13 -132 61 -62 43 -154 106 -204 140 l-91 63 -36
-26 c-21 -14 -37 -29 -37 -33 0 -4 23 -47 50 -96 63 -112 265 -627 254 -646
-10 -17 -95 -40 -127 -34 -56 10 -66 25 -92 133 -44 184 -106 315 -238 504
l-45 64 -169 23 c-185 26 -452 74 -698 127 l-160 35 -65 -43 c-179 -119 -359
-203 -520 -243 -100 -26 -150 -70 -150 -135 0 -41 8 -54 121 -196 73 -93 129
-155 142 -158 90 -20 1141 -157 1381 -180 171 -16 489 -19 571 -5 47 8 62 4
265 -70 355 -129 508 -193 760 -320 205 -103 561 -323 546 -337 -2 -2 -111 16
-242 41 l-239 46 -50 -50 c-54 -53 -133 -94 -211 -110 -123 -24 -517 -34 -861
-21 -185 6 -341 15 -346 18 -5 3 28 25 72 49 167 89 338 229 438 359 l31 41
-141 18 c-156 19 -506 77 -802 132 -266 49 -1058 210 -1187 241 l-107 26 -28
46 c-47 75 -161 198 -247 267 -232 186 -568 278 -1086 298 l-135 6 90 -15
c132 -22 460 -107 613 -159 151 -52 340 -144 457 -221 156 -103 318 -301 425
-520 46 -94 120 -283 120 -307 0 -6 -28 28 -62 76 -189 267 -375 422 -580 485
-118 36 -278 54 -428 49 l-136 -5 -37 63 c-89 151 -223 287 -352 359 -84 47
-213 90 -330 110 -111 20 -382 26 -525 12 l-85 -8 3 -37 4 -37 151 0 c242 0
371 -15 523 -60 122 -37 287 -151 375 -260 55 -68 53 -73 -34 -74 -103 -2
-313 -59 -427 -116 -36 -18 -92 -53 -125 -78 -88 -65 -233 -211 -298 -299 -32
-43 -64 -78 -71 -78 -60 0 -373 83 -494 131 -41 17 -81 28 -88 25 -6 -2 -15
-18 -19 -35 -8 -36 -20 -46 -63 -56 -35 -7 -120 1 -141 14 -42 26 127 581 250
822 l21 41 -35 37 c-18 20 -43 49 -55 64 -11 15 -142 159 -290 320 -148 161
-293 320 -323 355 -61 70 -98 89 -199 100 -59 6 -65 9 -68 31 -6 41 19 108 55
151 23 27 62 53 116 79 91 43 223 88 233 79 5 -6 33 -183 34 -213 0 -8 35 -7
113 1 94 10 642 67 772 80 70 7 553 43 785 59 302 20 323 22 490 50 403 67
726 86 1022 60z m-3917 -24 c28 -16 77 -55 111 -88 33 -32 80 -67 103 -78 l43
-19 -3 -84 -3 -84 74 -19 c40 -11 84 -26 97 -34 l24 -16 -36 -42 c-34 -39 -65
-116 -65 -161 0 -12 -3 -31 -6 -44 l-7 -23 -29 28 c-60 56 -72 114 -43 209 16
55 11 64 -42 64 -39 0 -67 -32 -88 -103 -8 -28 -15 -54 -15 -59 0 -5 72 -85
160 -178 156 -165 161 -169 170 -144 9 23 5 31 -30 71 -22 25 -40 51 -40 57 0
39 23 183 32 200 15 31 60 76 74 76 12 0 276 -271 282 -290 2 -6 -24 -10 -62
-10 -112 0 -155 -31 -190 -133 l-16 -49 126 -134 126 -134 -18 -37 c-15 -30
-19 -60 -18 -145 0 -100 2 -110 25 -134 54 -58 140 -80 198 -49 58 30 120 133
136 225 5 28 10 39 17 32 7 -7 7 -28 2 -59 -4 -26 -9 -52 -9 -58 -5 -45 -40
-128 -70 -162 -19 -23 -35 -47 -35 -54 0 -10 -3 -10 -11 -2 -8 8 -20 7 -45 -3
-86 -36 -120 -13 -230 154 -103 156 -157 224 -212 267 l-46 36 -34 -83 c-40
-96 -42 -120 -12 -180 55 -107 94 -135 248 -174 105 -27 113 -31 92 -44 -57
-37 -206 -74 -255 -65 -29 6 -29 5 -10 -10 34 -28 126 -72 200 -95 47 -15 107
-24 183 -27 61 -3 112 -7 112 -10 0 -2 -9 -36 -20 -75 -11 -40 -20 -86 -20
-102 l0 -29 -83 6 c-181 14 -383 88 -544 199 -191 131 -382 373 -526 667 l-70
143 18 56 c12 40 30 68 65 102 36 35 52 61 69 113 13 39 52 113 91 171 l68
104 -62 61 c-34 34 -65 59 -68 55 -4 -3 -25 -10 -48 -15 -53 -12 -108 2 -141
37 -71 76 24 319 159 405 58 36 94 37 157 0z m5803 -160 c15 -10 90 -57 168
-104 140 -84 142 -85 225 -91 235 -19 406 -40 512 -62 188 -40 227 -55 275
-105 23 -24 41 -48 41 -54 0 -5 -34 -39 -75 -74 -41 -35 -74 -66 -74 -70 0 -4
26 -19 58 -35 31 -15 158 -84 282 -154 304 -169 591 -355 1113 -721 115 -80
238 -167 275 -193 l67 -46 135 -12 c296 -25 529 -64 600 -100 39 -20 100 -90
100 -115 0 -7 -80 -71 -177 -143 -98 -72 -196 -144 -219 -161 l-40 -30 -80 80
c-129 131 -209 175 -424 235 l-115 31 -32 56 c-40 68 -144 165 -238 222 l-70
42 -70 -65 c-65 -60 -347 -254 -512 -351 l-71 -42 -50 25 c-76 39 -306 166
-315 175 -4 4 45 8 110 8 65 -1 149 5 186 12 128 25 320 141 475 288 l77 72
-22 18 c-175 144 -561 418 -792 563 l-135 84 -20 -29 c-43 -61 -142 -157 -209
-202 -69 -48 -69 -48 -45 -63 12 -8 36 -27 52 -43 25 -25 28 -33 23 -70 -5
-38 -2 -46 40 -97 62 -74 93 -143 93 -205 0 -47 3 -52 33 -69 62 -37 216 -151
216 -162 1 -8 -22 -7 -74 4 l-75 15 -45 -38 -46 -37 -242 100 c-133 55 -291
119 -352 142 -60 23 -115 48 -122 54 -6 6 -17 66 -23 134 l-11 123 35 39 c50
55 56 93 29 189 -6 23 -4 24 28 17 55 -11 116 -45 173 -97 l53 -48 13 72 12
72 91 85 c87 82 192 215 182 230 -3 5 -49 35 -102 69 -54 33 -118 73 -143 89
l-44 28 -37 -56 c-42 -65 -110 -126 -149 -135 -16 -3 -46 -2 -67 4 -44 12
-133 66 -133 81 0 6 25 10 58 10 128 0 185 38 206 137 7 31 5 33 -71 84 -43
29 -94 65 -114 81 -20 15 -39 28 -41 28 -3 0 -11 -19 -18 -42 -27 -93 -76
-165 -132 -194 -26 -13 -31 -12 -103 35 -41 27 -127 80 -191 117 l-117 68 6
74 c8 100 42 170 104 211 55 36 57 37 91 12z m-5014 -671 c28 -10 129 -127
153 -177 12 -23 35 -41 87 -67 71 -35 180 -129 173 -149 -2 -8 -108 -57 -123
-57 -1 0 -12 20 -24 44 -12 25 -39 61 -61 80 -50 46 -87 47 -165 6 l-58 -31
-74 73 c-111 110 -154 165 -148 186 8 24 65 82 91 93 28 11 119 11 149 -1z
m4348 -125 c88 -21 238 -46 421 -70 43 -6 51 -11 78 -53 60 -94 146 -280 188
-410 24 -73 42 -135 39 -137 -3 -3 -30 6 -62 21 -71 32 -163 46 -230 34 -39
-8 -58 -18 -81 -44 l-30 -34 -195 19 c-259 24 -419 44 -630 80 -189 32 -210
37 -209 47 0 4 30 30 67 58 123 94 336 291 436 403 54 61 100 111 102 111 1 0
49 -11 106 -25z m1036 -216 c40 -39 49 -85 27 -132 -15 -32 -61 -74 -70 -65
-2 2 1 24 6 48 10 43 6 130 -7 164 -10 25 9 19 44 -15z m-5216 -30 c28 -15 58
-86 58 -140 0 -61 -51 -164 -94 -190 -85 -52 -157 12 -157 141 -1 133 105 236
193 189z m1943 -538 l65 -68 102 -6 c278 -15 437 -131 575 -423 25 -53 42 -98
39 -101 -3 -3 -37 24 -76 60 -81 75 -231 155 -341 181 -146 35 -312 13 -472
-62 -110 -52 -178 -100 -291 -205 -205 -189 -350 -405 -411 -612 -38 -126 -40
-287 -6 -395 40 -130 92 -218 195 -334 14 -16 24 -31 22 -34 -6 -5 -101 60
-212 146 -188 146 -310 286 -392 451 l-47 94 0 136 0 136 44 115 c98 259 185
412 325 572 167 191 421 344 661 398 139 32 146 30 220 -49z m429 -520 c169
-60 288 -204 316 -386 36 -226 -96 -536 -328 -773 -98 -100 -177 -157 -297
-213 -262 -123 -526 -98 -705 67 -208 193 -182 525 67 859 188 250 414 412
643 461 88 18 228 11 304 -15z m471 -161 c28 -6 99 -25 158 -42 l108 -31 62
-90 c129 -189 581 -782 598 -785 37 -7 151 68 368 242 73 58 135 106 140 106
4 0 11 -4 16 -9 30 -27 321 -91 414 -91 45 0 73 7 127 34 38 18 126 59 196 90
104 47 131 55 147 46 25 -13 41 -41 41 -73 0 -21 -18 -34 -130 -93 -100 -52
-127 -71 -113 -76 10 -4 119 -28 241 -53 123 -25 285 -59 360 -75 161 -35 171
-36 214 -11 18 11 68 31 110 46 l77 27 63 -48 c35 -27 109 -89 166 -137 l103
-88 83 35 c59 26 98 36 134 36 47 0 56 -4 125 -60 144 -115 220 -215 248 -323
17 -70 6 -76 -30 -17 -45 73 -120 143 -188 177 -74 36 -200 44 -290 18 -78
-23 -213 -93 -298 -157 -94 -70 -319 -295 -389 -389 -262 -352 -297 -673 -100
-915 25 -30 42 -54 39 -54 -13 0 -195 119 -284 185 -193 143 -324 290 -356
399 -52 176 38 484 218 745 66 95 233 270 337 351 44 35 80 65 80 66 0 1 -69
-25 -152 -57 -191 -75 -340 -145 -394 -186 l-42 -31 -98 58 -97 59 -40 -20
-39 -21 -134 64 c-74 35 -134 67 -134 72 0 11 84 94 155 154 38 32 44 40 23
33 -44 -16 -125 -59 -196 -105 -37 -23 -141 -82 -232 -131 -91 -49 -186 -101
-213 -117 l-47 -28 -153 54 c-168 59 -316 121 -334 139 -7 7 -57 84 -113 171
-106 168 -260 378 -370 505 -75 86 -120 110 -212 110 l-58 1 11 28 c18 43 13
151 -9 214 -21 63 -20 70 12 63 12 -3 44 -9 71 -15z m7108 -287 c265 -186 537
-431 854 -771 144 -155 356 -401 373 -432 9 -17 9 -38 0 -88 -32 -187 -145
-272 -323 -244 -170 26 -606 238 -1259 612 -67 38 -123 72 -125 74 -2 2 14 40
36 85 85 169 266 595 332 784 7 20 17 37 22 37 5 0 46 -26 90 -57z m-3304
-1120 c217 -106 268 -367 130 -662 -124 -266 -333 -484 -574 -601 -130 -63
-208 -83 -305 -78 -209 12 -317 154 -289 379 35 283 169 541 403 775 99 100
187 162 275 195 116 43 262 40 360 -8z"/>
<path d="M9355 13259 c-154 -9 -343 -37 -529 -78 -116 -26 -150 -38 -231 -83
-52 -29 -95 -55 -95 -59 0 -3 28 -25 63 -49 67 -47 308 -231 527 -401 l135
-106 104 -11 c115 -12 213 -50 250 -98 l19 -25 94 40 c207 87 547 249 591 283
17 12 2 25 -159 132 -179 121 -387 272 -545 397 -48 38 -88 68 -90 68 -2 -1
-62 -6 -134 -10z m174 -107 c58 -51 186 -154 260 -209 10 -7 -13 -16 -140 -54
-117 -35 -295 -107 -286 -115 2 -2 50 5 107 15 58 10 180 29 272 41 l167 23
61 -39 c33 -22 60 -42 60 -45 0 -9 -28 -13 -502 -65 l-428 -47 -100 97 c-64
61 -152 130 -241 190 -108 72 -137 96 -126 104 7 6 43 25 81 41 93 42 209 65
616 120 119 16 115 17 199 -57z"/>
<path d="M7510 11983 c-53 -8 -109 -35 -125 -60 -9 -14 -28 -57 -41 -97 -13
-39 -54 -147 -91 -239 -37 -96 -62 -171 -57 -176 5 -4 61 -23 124 -41 63 -18
120 -35 126 -37 7 -2 33 31 59 75 59 99 163 220 235 273 109 82 288 157 448
190 34 7 62 16 62 19 0 10 -204 57 -300 69 -195 25 -375 35 -440 24z"/>
<path d="M5750 13204 c-92 -78 -98 -244 -8 -244 59 0 138 115 138 200 0 69
-71 93 -130 44z m94 -36 c14 -39 -7 -98 -53 -149 -33 -37 -42 -42 -58 -33 -47
28 -38 109 20 179 36 44 76 46 91 3z"/>
<path d="M5970 13103 c-33 -23 -54 -49 -84 -104 l-25 -46 34 -16 c24 -11 42
-31 57 -61 23 -49 40 -51 63 -7 13 26 12 29 -21 55 -41 33 -43 58 -10 139 26
61 24 66 -14 40z"/>
<path d="M5981 12568 c-23 -40 -51 -104 -63 -142 -20 -66 -20 -71 -4 -121 23
-73 82 -159 160 -233 36 -35 66 -67 66 -70 0 -4 -21 -15 -46 -26 -25 -10 -48
-25 -51 -32 -5 -12 104 -173 118 -174 3 0 35 89 71 197 l66 196 -25 38 c-25
38 -28 83 -9 159 6 22 -10 42 -110 150 -63 69 -120 126 -124 128 -5 2 -27 -30
-49 -70z m193 -127 l48 -49 -16 -48 c-9 -26 -16 -70 -16 -97 0 -61 -14 -59
-55 8 -23 38 -30 62 -33 116 -4 70 2 119 16 119 4 0 30 -22 56 -49z"/>
<path d="M9001 10861 c-113 -144 -232 -226 -343 -238 -49 -5 -139 6 -180 22
-13 5 -33 -8 -72 -48 -60 -60 -73 -96 -62 -170 6 -38 12 -45 52 -66 84 -45
124 -112 124 -211 l0 -45 -132 -28 c-184 -39 -170 -33 -163 -70 35 -174 120
-278 255 -313 117 -30 242 -3 449 97 114 56 131 68 228 162 269 262 378 572
276 790 -45 95 -77 133 -141 164 -44 21 -74 28 -141 31 l-86 4 -64 -81z m250
3 c11 -10 19 -22 19 -27 0 -6 -28 -53 -62 -105 -87 -135 -128 -218 -128 -258
0 -48 78 -130 170 -178 38 -20 72 -41 75 -46 9 -15 -34 -105 -64 -134 l-28
-27 -69 33 c-58 27 -81 32 -144 33 -62 0 -85 -5 -132 -28 -74 -36 -201 -156
-285 -268 l-65 -88 -44 22 c-24 11 -44 26 -44 32 0 6 25 49 55 95 71 108 98
178 99 261 1 57 -3 72 -29 114 -17 27 -55 69 -85 93 -94 74 -100 80 -100 101
0 11 13 35 28 52 l28 31 72 -17 c106 -26 220 -18 292 21 69 37 204 165 255
243 22 33 47 62 55 65 29 9 113 -4 131 -20z"/>
<path d="M8825 10492 c-81 -50 -135 -159 -115 -233 21 -77 100 -110 165 -71
72 44 121 111 125 172 5 69 0 92 -29 121 -24 23 -38 29 -73 29 -24 0 -56 -8
-73 -18z"/>
<path d="M13335 9426 c-72 -22 -184 -87 -220 -127 -32 -36 -35 -44 -35 -104 0
-62 -1 -65 -37 -92 -34 -26 -42 -28 -120 -25 -100 3 -129 -9 -171 -71 -32 -46
-72 -121 -72 -135 0 -5 19 -22 43 -39 52 -38 83 -86 64 -101 -6 -5 -55 -25
-107 -45 -111 -41 -108 -36 -109 -182 -2 -232 74 -315 261 -286 234 38 502
218 641 431 133 205 189 350 190 490 1 103 -13 155 -56 212 -60 80 -164 108
-272 74z m187 -60 c14 -21 8 -36 -68 -151 -81 -124 -144 -239 -144 -266 0 -29
39 -68 111 -110 41 -25 69 -48 69 -58 -1 -29 -37 -95 -68 -125 l-31 -28 -47
16 c-52 18 -149 21 -187 7 -25 -10 -207 -191 -303 -303 -32 -38 -64 -68 -72
-68 -27 0 -79 31 -89 53 -9 19 -1 35 56 114 36 51 88 128 114 172 47 76 48 80
34 108 -16 31 -133 147 -156 154 -20 7 33 103 71 131 27 19 34 19 94 8 78 -15
148 -8 201 18 38 20 213 193 288 286 21 26 48 52 60 56 23 10 56 3 67 -14z"/>
<path d="M13105 8955 c-80 -43 -138 -134 -133 -207 3 -39 7 -45 41 -62 36 -17
41 -17 82 -2 77 30 155 133 155 208 0 9 -10 29 -22 43 -29 33 -82 41 -123 20z"/>
<path d="M3550 16738 c-235 -40 -473 -137 -685 -278 -151 -101 -354 -303 -454
-454 -204 -307 -301 -622 -301 -981 0 -359 97 -674 301 -981 100 -151 303
-353 454 -454 306 -203 621 -300 980 -300 359 0 674 97 980 300 152 102 353
303 455 455 306 459 384 1001 219 1511 -88 271 -221 488 -428 695 -99 98 -166
155 -246 209 -215 143 -452 238 -694 279 -166 28 -417 28 -581 -1z"/>
<path d="M3783 9200 c119 -277 402 -858 457 -940 9 -14 35 -59 58 -100 155
-287 488 -805 714 -1114 883 -1201 2227 -2542 3673 -3663 395 -306 626 -473
1052 -762 138 -94 253 -171 256 -171 13 0 546 333 662 414 28 19 70 47 93 63
327 212 846 578 923 650 24 22 26 28 18 71 -31 166 -189 328 -408 418 -658
271 -1676 776 -2421 1202 -973 555 -1674 1033 -2590 1766 -714 571 -1638 1382
-2453 2155 l-49 46 15 -35z"/>
</g>
</svg>
